<svg width="80" height="80" viewBox="0 0 80 80" fill="none" xmlns="http://www.w3.org/2000/svg">
<g id="vuesax/linear/call-calling">
<g id="call-calling">
<g id="call-calling_2">
<path id="Vector" d="M73.2346 61.1001C73.2346 62.3001 72.968 63.5334 72.4013 64.7334C71.8346 65.9334 71.1013 67.0668 70.1346 68.1334C68.5013 69.9334 66.7013 71.2334 64.668 72.0668C62.668 72.9001 60.5013 73.3334 58.168 73.3334C54.768 73.3334 51.1346 72.5334 47.3013 70.9001C43.468 69.2668 39.6346 67.0668 35.8346 64.3001C32.0013 61.5001 28.368 58.4001 24.9013 54.9667C21.468 51.5001 18.368 47.8668 15.6013 44.0668C12.868 40.2668 10.668 36.4668 9.06797 32.7001C7.46797 28.9001 6.66797 25.2667 6.66797 21.8001C6.66797 19.5334 7.06797 17.3667 7.86797 15.3667C8.66797 13.3334 9.93464 11.4667 11.7013 9.80008C13.8346 7.70008 16.168 6.66675 18.6346 6.66675C19.568 6.66675 20.5013 6.86675 21.3346 7.26675C22.2013 7.66675 22.968 8.26675 23.568 9.13341L31.3013 20.0334C31.9013 20.8667 32.3346 21.6334 32.6346 22.3667C32.9346 23.0667 33.1013 23.7667 33.1013 24.4001C33.1013 25.2001 32.868 26.0001 32.4013 26.7667C31.968 27.5334 31.3346 28.3334 30.5346 29.1334L28.0013 31.7667C27.6346 32.1334 27.468 32.5668 27.468 33.1001C27.468 33.3668 27.5013 33.6001 27.568 33.8667C27.668 34.1334 27.768 34.3334 27.8346 34.5334C28.4346 35.6334 29.468 37.0668 30.9346 38.8001C32.4346 40.5334 34.0346 42.3001 35.768 44.0668C37.568 45.8334 39.3013 47.4667 41.068 48.9667C42.8013 50.4334 44.2346 51.4334 45.368 52.0334C45.5346 52.1001 45.7346 52.2001 45.968 52.3001C46.2346 52.4001 46.5013 52.4334 46.8013 52.4334C47.368 52.4334 47.8013 52.2334 48.168 51.8668L50.7013 49.3668C51.5346 48.5334 52.3346 47.9001 53.1013 47.5001C53.868 47.0334 54.6346 46.8001 55.468 46.8001C56.1013 46.8001 56.768 46.9334 57.5013 47.2334C58.2346 47.5334 59.0013 47.9668 59.8346 48.5334L70.868 56.3667C71.7346 56.9667 72.3346 57.6667 72.7013 58.5001C73.0346 59.3334 73.2346 60.1668 73.2346 61.1001Z" stroke="#A665F6" stroke-width="4" stroke-miterlimit="10"/>
<path id="Vector_2" d="M61.6667 30.0002C61.6667 28.0002 60.1 24.9335 57.7667 22.4335C55.6333 20.1335 52.8 18.3335 50 18.3335" stroke="#A665F6" stroke-width="4" stroke-linecap="round" stroke-linejoin="round"/>
<path id="Vector_3" d="M73.3333 30.0001C73.3333 17.1001 62.9 6.66675 50 6.66675" stroke="#A665F6" stroke-width="4" stroke-linecap="round" stroke-linejoin="round"/>
</g>
</g>
</g>
</svg>
