<svg width="32" height="33" viewBox="0 0 32 33" fill="none" xmlns="http://www.w3.org/2000/svg">
<g id="Icon/correct" clip-path="url(#clip0_13058_1103)">
<path id="Vector" d="M22.668 5.30093C24.679 6.46207 26.3519 8.1283 27.5211 10.1347C28.6902 12.141 29.3151 14.418 29.3339 16.74C29.3526 19.0621 28.7646 21.3489 27.628 23.3739C26.4914 25.3988 24.8456 27.0919 22.8536 28.2854C20.8616 29.4788 18.5925 30.1314 16.2708 30.1783C13.9491 30.2253 11.6554 29.6652 9.61671 28.5533C7.57805 27.4414 5.86513 25.8163 4.64752 23.839C3.42992 21.8616 2.74985 19.6005 2.67464 17.2796L2.66797 16.8476L2.67464 16.4156C2.74931 14.1129 3.41937 11.8689 4.61949 9.90225C5.81961 7.93563 7.50884 6.31353 9.52249 5.1941C11.5361 4.07468 13.8055 3.49612 16.1093 3.51484C18.4131 3.53357 20.6728 4.14892 22.668 5.30093ZM20.944 13.2383C20.7144 13.0087 20.4089 12.8708 20.0849 12.8504C19.7608 12.83 19.4405 12.9286 19.184 13.1276L19.0586 13.2383L14.668 17.6276L12.944 15.9049L12.8186 15.7943C12.5621 15.5954 12.2418 15.497 11.9178 15.5174C11.5939 15.5378 11.2885 15.6758 11.059 15.9053C10.8295 16.1348 10.6915 16.4402 10.6711 16.7641C10.6507 17.0881 10.7491 17.4084 10.948 17.6649L11.0586 17.7903L13.7253 20.4569L13.8506 20.5676C14.0845 20.749 14.372 20.8475 14.668 20.8475C14.9639 20.8475 15.2515 20.749 15.4853 20.5676L15.6106 20.4569L20.944 15.1236L21.0546 14.9983C21.2536 14.7417 21.3522 14.4214 21.3318 14.0974C21.3114 13.7733 21.1735 13.4679 20.944 13.2383Z" fill="#272525"/>
</g>
<defs>
<clipPath id="clip0_13058_1103">
<rect width="32" height="32" fill="white" transform="translate(0 0.847656)"/>
</clipPath>
</defs>
</svg>
