<svg width="80" height="80" viewBox="0 0 80 80" fill="none" xmlns="http://www.w3.org/2000/svg">
<g id="vuesax/linear/map">
<g id="map">
<path id="Vector" d="M7.63281 25.9334V58.3667C7.63281 64.7001 12.1328 67.3001 17.5995 64.1667L25.4328 59.7001C27.1328 58.7334 29.9661 58.6334 31.7328 59.5334L49.2328 68.3001C50.9995 69.1667 53.8328 69.1001 55.5328 68.1334L69.9661 59.8667C71.7995 58.8001 73.3328 56.2001 73.3328 54.0667V21.6334C73.3328 15.3001 68.8328 12.7001 63.3661 15.8334L55.5328 20.3001C53.8328 21.2667 50.9995 21.3667 49.2328 20.4667L31.7328 11.7334C29.9661 10.8667 27.1328 10.9334 25.4328 11.9001L10.9995 20.1667C9.13281 21.2334 7.63281 23.8334 7.63281 25.9334Z" stroke="#A665F6" stroke-width="4" stroke-linecap="round" stroke-linejoin="round"/>
<path id="Vector_2" d="M28.5352 13.3333V56.6666" stroke="#A665F6" stroke-width="4" stroke-linecap="round" stroke-linejoin="round"/>
<path id="Vector_3" d="M52.4336 22.0667V66.6666" stroke="#A665F6" stroke-width="4" stroke-linecap="round" stroke-linejoin="round"/>
</g>
</g>
</svg>
